<svg width="10" height="6" viewBox="0 0 10 6" fill="none" xmlns="http://www.w3.org/2000/svg">
<path fill-rule="evenodd" clip-rule="evenodd" d="M5.47134 4.97133C5.34632 5.09631 5.17678 5.16652 5 5.16652C4.82323 5.16652 4.65369 5.09631 4.52867 4.97133L0.757336 1.19999C0.693662 1.1385 0.642874 1.06493 0.607935 0.983598C0.572995 0.902262 0.554605 0.814782 0.553835 0.726262C0.553066 0.637743 0.569934 0.549956 0.603455 0.468026C0.636975 0.386095 0.686477 0.31166 0.749072 0.249064C0.811668 0.186469 0.886102 0.136967 0.968033 0.103447C1.04996 0.0699261 1.13775 0.0530585 1.22627 0.0538277C1.31479 0.0545969 1.40227 0.0729877 1.48361 0.107927C1.56494 0.142866 1.6385 0.193654 1.7 0.257328L5 3.55733L8.3 0.257328C8.42574 0.135889 8.59414 0.0686928 8.76894 0.0702118C8.94373 0.0717307 9.11094 0.141843 9.23455 0.265449C9.35815 0.389054 9.42827 0.556263 9.42979 0.73106C9.4313 0.905858 9.36411 1.07426 9.24267 1.19999L5.47134 4.97133Z" fill="white"/>
</svg>
