<svg width="25" height="24" viewBox="0 0 25 24" fill="none" xmlns="http://www.w3.org/2000/svg">
<g clip-path="url(#clip0_26_1765)">
<path fill-rule="evenodd" clip-rule="evenodd" d="M13.207 15.707C13.0194 15.8945 12.7651 15.9998 12.5 15.9998C12.2348 15.9998 11.9805 15.8945 11.793 15.707L6.13598 10.05C6.04047 9.95775 5.96428 9.84741 5.91188 9.7254C5.85947 9.6034 5.83188 9.47218 5.83073 9.3394C5.82957 9.20662 5.85487 9.07494 5.90516 8.95205C5.95544 8.82915 6.02969 8.7175 6.12358 8.6236C6.21747 8.52971 6.32913 8.45546 6.45202 8.40518C6.57492 8.3549 6.7066 8.3296 6.83938 8.33075C6.97216 8.3319 7.10338 8.35949 7.22538 8.4119C7.34739 8.46431 7.45773 8.54049 7.54998 8.636L12.5 13.586L17.45 8.636C17.6386 8.45384 17.8912 8.35305 18.1534 8.35533C18.4156 8.3576 18.6664 8.46277 18.8518 8.64818C19.0372 8.83359 19.1424 9.0844 19.1447 9.3466C19.1469 9.6088 19.0461 9.8614 18.864 10.05L13.207 15.707Z" fill="black"/>
</g>
<defs>
<clipPath id="clip0_26_1765">
<rect width="24" height="24" fill="white" transform="translate(0.5)"/>
</clipPath>
</defs>
</svg>
