<svg width="25" height="24" viewBox="0 0 25 24" fill="none" xmlns="http://www.w3.org/2000/svg">
<g clip-path="url(#clip0_26_1666)">
<path d="M0.5 12.0002C0.5 16.914 3.45481 21.1354 7.68303 22.9913C7.64928 22.1534 7.67703 21.1475 7.89191 20.2358C8.12263 19.2616 9.43597 13.6969 9.43597 13.6969C9.43597 13.6969 9.05262 12.9307 9.05262 11.7982C9.05262 10.0199 10.0833 8.69175 11.3669 8.69175C12.4585 8.69175 12.9858 9.51159 12.9858 10.4933C12.9858 11.5906 12.286 13.2319 11.9261 14.752C11.6254 16.025 12.5643 17.0632 13.8201 17.0632C16.0937 17.0632 17.625 14.143 17.625 10.6831C17.625 8.05303 15.8536 6.08447 12.6317 6.08447C8.99159 6.08447 6.72388 8.79909 6.72388 11.8313C6.72388 12.8768 7.03212 13.6141 7.51494 14.185C7.73694 14.4473 7.76778 14.5527 7.68744 14.8538C7.62988 15.0746 7.49769 15.6062 7.44294 15.8168C7.36306 16.1208 7.11678 16.2294 6.84209 16.1172C5.16547 15.4328 4.38463 13.5967 4.38463 11.5327C4.38463 8.12381 7.25956 4.03631 12.9611 4.03631C17.5426 4.03631 20.5581 7.35169 20.5581 10.9105C20.5581 15.618 17.941 19.1348 14.0832 19.1348C12.7876 19.1348 11.569 18.4345 11.1515 17.6391C11.1515 17.6391 10.4548 20.4039 10.3073 20.9378C10.0528 21.8631 9.55484 22.7878 9.0995 23.5086C10.2036 23.835 11.3491 24.0008 12.5005 24.0007C19.1271 24.0007 24.5001 18.6279 24.5001 12.0002C24.5001 5.37272 19.1271 0 12.5005 0C5.87319 0 0.5 5.37272 0.5 12.0002Z" fill="#CB1F27"/>
</g>
<defs>
<clipPath id="clip0_26_1666">
<rect width="24" height="24" fill="white" transform="translate(0.5)"/>
</clipPath>
</defs>
</svg>
