<svg width="25" height="24" viewBox="0 0 25 24" fill="none" xmlns="http://www.w3.org/2000/svg">
<path d="M19.57 4.93C17.9292 3.2785 15.7636 2.25121 13.4466 2.02524C11.1296 1.79927 8.80635 2.38878 6.87738 3.69213C4.94842 4.99548 3.53463 6.93101 2.87976 9.16501C2.22489 11.399 2.36997 13.7915 3.29 15.93C3.38589 16.1288 3.41735 16.3525 3.38 16.57L2.5 20.8C2.46609 20.9622 2.47302 21.1302 2.52014 21.2891C2.56727 21.4479 2.65313 21.5926 2.77 21.71C2.8658 21.8051 2.97987 21.8798 3.10533 21.9297C3.23079 21.9795 3.36504 22.0034 3.5 22H3.7L7.98 21.14C8.19753 21.1138 8.41812 21.1449 8.62 21.23C10.7585 22.15 13.151 22.2951 15.385 21.6402C17.619 20.9854 19.5545 19.5716 20.8579 17.6426C22.1612 15.7137 22.7507 13.3904 22.5248 11.0734C22.2988 8.75636 21.2715 6.59079 19.62 4.95L19.57 4.93ZM8.5 13C8.30221 13 8.10888 12.9414 7.94443 12.8315C7.77998 12.7216 7.6518 12.5654 7.57612 12.3827C7.50043 12.2 7.48063 11.9989 7.51921 11.8049C7.5578 11.6109 7.65304 11.4327 7.79289 11.2929C7.93274 11.153 8.11092 11.0578 8.30491 11.0192C8.49889 10.9806 8.69995 11.0004 8.88268 11.0761C9.06541 11.1518 9.22158 11.28 9.33147 11.4444C9.44135 11.6089 9.5 11.8022 9.5 12C9.5 12.2652 9.39464 12.5196 9.2071 12.7071C9.01957 12.8946 8.76521 13 8.5 13ZM12.5 13C12.3022 13 12.1089 12.9414 11.9444 12.8315C11.78 12.7216 11.6518 12.5654 11.5761 12.3827C11.5004 12.2 11.4806 11.9989 11.5192 11.8049C11.5578 11.6109 11.653 11.4327 11.7929 11.2929C11.9327 11.153 12.1109 11.0578 12.3049 11.0192C12.4989 10.9806 12.7 11.0004 12.8827 11.0761C13.0654 11.1518 13.2216 11.28 13.3315 11.4444C13.4413 11.6089 13.5 11.8022 13.5 12C13.5 12.2652 13.3946 12.5196 13.2071 12.7071C13.0196 12.8946 12.7652 13 12.5 13ZM16.5 13C16.3022 13 16.1089 12.9414 15.9444 12.8315C15.78 12.7216 15.6518 12.5654 15.5761 12.3827C15.5004 12.2 15.4806 11.9989 15.5192 11.8049C15.5578 11.6109 15.653 11.4327 15.7929 11.2929C15.9327 11.153 16.1109 11.0578 16.3049 11.0192C16.4989 10.9806 16.7 11.0004 16.8827 11.0761C17.0654 11.1518 17.2216 11.28 17.3315 11.4444C17.4413 11.6089 17.5 11.8022 17.5 12C17.5 12.2652 17.3946 12.5196 17.2071 12.7071C17.0196 12.8946 16.7652 13 16.5 13Z" fill="black"/>
</svg>
