<svg width="25" height="24" viewBox="0 0 25 24" fill="none" xmlns="http://www.w3.org/2000/svg">
<path d="M21.5 19V20H3.5V19L5.5 17V11C5.5 7.9 7.53 5.17 10.5 4.29V4C10.5 3.46957 10.7107 2.96086 11.0858 2.58579C11.4609 2.21071 11.9696 2 12.5 2C13.0304 2 13.5391 2.21071 13.9142 2.58579C14.2893 2.96086 14.5 3.46957 14.5 4V4.29C17.47 5.17 19.5 7.9 19.5 11V17L21.5 19ZM14.5 21C14.5 21.5304 14.2893 22.0391 13.9142 22.4142C13.5391 22.7893 13.0304 23 12.5 23C11.9696 23 11.4609 22.7893 11.0858 22.4142C10.7107 22.0391 10.5 21.5304 10.5 21" fill="black"/>
</svg>
